<?xml version="1.0" encoding="utf-8"?><svg width="150" height="145" viewBox="0 0 150 145" xmlns="http://www.w3.org/2000/svg" xmlns:xlink="http://www.w3.org/1999/xlink"><view id=".product-360" viewBox="89 99 20 20"/><svg width="20" height="20" viewBox="0 0 20 20" x="89" y="99" xmlns="http://www.w3.org/2000/svg"><path fill="#2D2D2D" fill-rule="evenodd" d="M16.531 2.427l1.466-.232L17.65 0l-5.487.87.173 1.097.696 4.39 2.194-.348-.324-2.048A7.778 7.778 0 1 1 9.94 2.222V0C4.445.032 0 4.497 0 10c0 5.523 4.477 10 10 10s10-4.477 10-10a9.977 9.977 0 0 0-3.469-7.573zm-11.32 7.09a.777.777 0 0 1 .164-.443.563.563 0 0 1 .411-.158c.172 0 .309.065.391.143.09.086.151.223.151.387a.572.572 0 0 1-.171.43c-.151.129-.398.136-.46.136h-.062v.76h.083c.157 0 .397.014.562.15.11.093.199.258.199.458 0 .194-.076.38-.185.487a.661.661 0 0 1-.46.165.695.695 0 0 1-.507-.193.934.934 0 0 1-.22-.537H4.051c.048.48.247.902.508 1.182.404.422.891.494 1.337.494.37 0 .816-.043 1.207-.416.322-.308.46-.723.46-1.089 0-.257-.076-.558-.213-.752a1.128 1.128 0 0 0-.521-.386.861.861 0 0 0 .342-.301c.144-.208.186-.416.186-.652 0-.466-.158-.781-.35-.974-.233-.244-.638-.423-1.2-.423-.377 0-.823.086-1.159.451-.24.258-.411.68-.453 1.082H5.21zm10.84.96c0-.823-.212-1.554-.658-2.005-.267-.272-.665-.494-1.227-.494-.549 0-.94.215-1.214.494-.446.451-.658 1.182-.658 2.006 0 .816.212 1.54.658 1.998.274.28.665.495 1.214.495.562 0 .96-.222 1.227-.495.446-.458.658-1.182.658-1.998zm-1.878-1.554c.178 0 .301.058.425.18.336.343.384 1.03.384 1.368 0 .372-.062 1.045-.384 1.375a.556.556 0 0 1-.425.18.556.556 0 0 1-.426-.18c-.322-.33-.384-1.003-.384-1.375 0-.337.048-1.025.384-1.369a.556.556 0 0 1 .426-.179zm-4.197-.945l-1.05 1.44c-.39.537-.733 1.074-.733 1.833 0 .423.096.824.398 1.16.452.517 1.063.56 1.481.56.405 0 .987-.065 1.406-.538.295-.336.432-.823.432-1.282 0-.58-.233-.924-.398-1.103-.199-.215-.555-.458-1.131-.458-.2 0-.343.028-.48.078L11.107 8.1l-1.131-.122zm.062 4.09a.782.782 0 0 1-.556-.222.787.787 0 0 1-.233-.595c0-.33.144-.523.233-.608.158-.158.35-.208.556-.208.178 0 .377.043.548.2a.77.77 0 0 1 .24.588c0 .308-.116.508-.24.63a.771.771 0 0 1-.548.215z"/></svg><view id=".product-360-selected" viewBox="30 99 24 24"/><svg width="24" height="24" viewBox="0 0 24 24" x="30" y="99" xmlns="http://www.w3.org/2000/svg"><path fill="#2D2D2D" fill-rule="evenodd" d="M12 24C5.373 24 0 18.627 0 12S5.373 0 12 0s12 5.373 12 12-5.373 12-12 12zm7.778-12a7.778 7.778 0 1 1-7.838-7.778V2C6.445 2.032 2 6.497 2 12c0 5.523 4.477 10 10 10s10-4.477 10-10a9.964 9.964 0 0 0-2.645-6.776l1.443-.228-.217-1.326c0-.03-.016-.074-.016-.074s-.146-.145-.322-.315c-.177-.17-.427-.383-.427-.383l-4.853.772.87 5.487 2.194-.348-.365-2.303c1.48 1.359 2.116 3.198 2.116 5.494zM7.21 11.518a.777.777 0 0 1 .165-.444.563.563 0 0 1 .411-.158c.172 0 .309.065.391.143.09.086.151.223.151.387a.572.572 0 0 1-.171.43c-.151.129-.398.136-.46.136h-.062v.76h.083c.157 0 .397.014.562.15.11.093.199.258.199.458 0 .194-.076.38-.185.487a.661.661 0 0 1-.46.165.695.695 0 0 1-.507-.193.934.934 0 0 1-.22-.537H6.051c.048.48.247.902.508 1.182.404.422.891.494 1.337.494.37 0 .816-.043 1.207-.416.322-.308.46-.723.46-1.089 0-.257-.076-.558-.213-.752a1.128 1.128 0 0 0-.521-.386.861.861 0 0 0 .342-.301c.144-.208.186-.416.186-.652 0-.466-.158-.781-.35-.974-.233-.244-.638-.423-1.2-.423-.377 0-.823.086-1.159.451-.24.258-.411.68-.453 1.082H7.21zm10.841.96c0-.824-.212-1.555-.658-2.006-.267-.272-.665-.494-1.227-.494-.549 0-.94.215-1.214.494-.446.451-.658 1.182-.658 2.006 0 .816.212 1.54.658 1.998.274.28.665.495 1.214.495.562 0 .96-.222 1.227-.495.446-.458.658-1.182.658-1.998zm-1.878-1.555c.178 0 .301.058.425.18.336.343.384 1.03.384 1.368 0 .372-.062 1.045-.384 1.375a.556.556 0 0 1-.425.18.556.556 0 0 1-.426-.18c-.322-.33-.384-1.003-.384-1.375 0-.337.048-1.025.384-1.369a.556.556 0 0 1 .426-.179zm-4.197-.945l-1.05 1.44c-.39.537-.733 1.074-.733 1.833 0 .423.096.824.398 1.16.452.517 1.063.56 1.481.56.405 0 .987-.065 1.406-.538.295-.336.432-.823.432-1.282 0-.58-.233-.924-.398-1.103-.199-.215-.555-.458-1.131-.458-.2 0-.343.028-.48.078l1.206-1.568-1.131-.122zm.062 4.09a.782.782 0 0 1-.556-.222.787.787 0 0 1-.233-.595c0-.33.144-.523.233-.608.158-.158.35-.208.556-.208.178 0 .377.043.548.2a.77.77 0 0 1 .24.588c0 .308-.116.508-.24.63a.771.771 0 0 1-.548.215z"/></svg><view id=".product-afterpay-logo" viewBox="0 0 70 15"/><svg width="70" height="15" viewBox="0 0 70 15" xmlns="http://www.w3.org/2000/svg"><g fill="none" fill-rule="evenodd"><path fill="#31322F" fill-rule="nonzero" d="M34.308 7.806c0-.96-.785-1.759-1.715-1.759s-1.715.8-1.715 1.759c0 .945.785 1.758 1.715 1.758s1.715-.813 1.715-1.758zm.74-2.456a3.502 3.502 0 0 1 1.018 2.456 3.5 3.5 0 0 1-1.017 2.456 3.439 3.439 0 0 1-2.456 1.003c-.61 0-1.163-.218-1.643-.654l-.072-.058v3.892L29.119 15V4.478h1.759V5l.072-.073c.524-.508 1.12-.581 1.643-.581a3.49 3.49 0 0 1 2.456 1.003zm3.402 2.456c0 .96.785 1.758 1.715 1.758s1.715-.799 1.715-1.758c0-.945-.785-1.759-1.715-1.759s-1.715.814-1.715 1.759zm-.741 2.456a3.502 3.502 0 0 1-1.018-2.456c0-.916.364-1.788 1.018-2.456a3.439 3.439 0 0 1 2.456-1.003c.61 0 1.163.218 1.642.654l.073.058v-.581h1.758v6.656H41.88v-.523l-.073.073c-.523.508-1.119.58-1.642.58a3.49 3.49 0 0 1-2.456-1.002z"/><path fill="#31322F" d="M45.397 15l1.585-3.851-2.66-6.671h1.947l1.657 4.142 1.686-4.142h1.933L47.3 15h-1.904"/><path fill="#31322F" fill-rule="nonzero" d="M3.402 5.468a2.334 2.334 0 0 0-2.324 2.338 2.334 2.334 0 0 0 2.324 2.338 2.334 2.334 0 0 0 2.324-2.338 2.334 2.334 0 0 0-2.324-2.338zm0 5.726c-.91 0-1.766-.348-2.41-.979A3.433 3.433 0 0 1 0 7.805c0-.9.353-1.755.993-2.41.643-.63 1.5-.977 2.41-.977.92 0 1.695.487 2.182.896l.141.117v-.868h1.079v6.486H5.726v-.869l-.14.118c-.488.409-1.263.896-2.184.896z"/><path fill="#31322F" d="M8.757 11.049V5.584H7.77v-1.02h.988V2.646c0-1.175.933-2.095 2.123-2.095h1.357l-.274 1.02H10.91c-.572 0-1.074.516-1.074 1.104v1.887h2.049v1.02h-2.05v5.466H8.758m7.194.001a2.126 2.126 0 0 1-2.123-2.124V5.584h-.988v-1.02h.988V.551h1.078v4.011h2.05v1.02h-2.05v3.313c0 .592.512 1.132 1.075 1.132h1.053l.274 1.02h-1.357"/><path fill="#31322F" fill-rule="nonzero" d="M20.597 5.511c-.834 0-1.608.601-1.927 1.496l-.01.02-.062.123h3.998l-.077-.153c-.299-.884-1.073-1.486-1.922-1.486zm-.002 5.654c-.844 0-1.62-.352-2.187-.989a3.334 3.334 0 0 1-.88-2.042c-.014-.102-.014-.197-.014-.299 0-.254.029-.512.085-.766a3.422 3.422 0 0 1 .809-1.575 2.968 2.968 0 0 1 2.189-.974 2.99 2.99 0 0 1 2.204.975c.421.466.7 1.01.807 1.571.085.497.087.805.078.96H18.55v.114c.15 1.149 1.017 2.018 2.017 2.033a2.63 2.63 0 0 0 1.642-.676l.9.538a3.808 3.808 0 0 1-.797.648c-.475.285-1.068.451-1.716.482z"/><path fill="#31322F" d="M24.745 11.049V4.563h1.079v.82l.149-.165c.382-.422 1.507-.766 2.254-.797l-.263 1.077c-1.186.034-2.14.958-2.14 2.09v3.46h-1.079"/><path fill="#306E9A" d="M60.857 6.316l1.889-1.093c-.209-.366-.158-.278-.348-.624-.202-.366-.126-.51.29-.513a297.6 297.6 0 0 1 3.636-.003c.36.002.446.156.266.473-.6 1.054-1.205 2.105-1.817 3.152-.195.334-.366.333-.57.006-.21-.336-.154-.253-.378-.634l-1.883 1.093c.037.097.085.16.124.227.466.812.674 1.2 1.156 2.002.571.95 1.768 1.008 2.448.129.075-.098.144-.202.206-.309 1.144-1.98 2.288-3.96 3.424-5.945.116-.201.22-.42.27-.645a1.425 1.425 0 0 0-1.395-1.743c-2.45-.013-4.902-.015-7.352.007a1.44 1.44 0 0 0-1.297 2.11c.16.32.351.623.531.933l.8 1.377"/><path fill="#1F4066" d="M55.408 12.436l.003-2.174s-.3-.004-.708-.004c-.415 0-.5-.146-.296-.505.597-1.043 1.2-2.084 1.809-3.12.18-.308.341-.335.539.007.601 1.042 1.205 2.083 1.798 3.129.19.334.104.48-.278.492h-.732v2.18h2.549c1.1-.016 1.745-1.014 1.33-2.035a2.733 2.733 0 0 0-.162-.33c-1.13-1.968-2.258-3.937-3.395-5.9a2.353 2.353 0 0 0-.419-.553 1.414 1.414 0 0 0-2.19.329 518.988 518.988 0 0 0-3.657 6.31 1.43 1.43 0 0 0 1.164 2.164c.354.023 1.865.01 2.645.01"/></g></svg><view id=".product-arrowup" viewBox="54 99 15 20"/><svg width="15" height="20" viewBox="0 0 15 20" x="54" y="99" xmlns="http://www.w3.org/2000/svg"><path fill="#2D2D2D" fill-rule="evenodd" d="M6 3.9L1.414 8.484 0 7.071 7.071 0l1.414 1.414 5.657 5.657-1.414 1.414L8 3.757V20H6V3.9z"/></svg><view id=".product-chevron" viewBox="98 74 9 14"/><svg width="9" height="14" viewBox="0 0 9 14" x="98" y="74" xmlns="http://www.w3.org/2000/svg"><path fill="#2D2D2D" fill-rule="evenodd" d="M7.657 5.586L2-.071.586 1.343 6.243 7 .586 12.657 2 14.07 9.071 7 7.657 5.586z"/></svg><view id=".product-chevron-left-large" viewBox="80 59 18 31"/><svg width="18" height="31" viewBox="0 0 18 31" x="80" y="59" xmlns="http://www.w3.org/2000/svg"><path fill="#2D2D2D" fill-rule="evenodd" d="M4.078 15.664L17.621 2.121 15.5 0 .5 15l.164.164-.664.664 15 15 2.121-2.12L4.078 15.663z"/></svg><view id=".product-chevron-right-large" viewBox="44 15 18 31"/><svg width="18" height="31" viewBox="0 0 18 31" x="44" y="15" xmlns="http://www.w3.org/2000/svg"><path fill="#2D2D2D" fill-rule="evenodd" d="M13.543 15.164L0 28.707l2.121 2.121 15-15-.164-.164.664-.664-15-15L.5 2.121l13.043 13.043z"/></svg><view id=".product-christmas-icon" viewBox="0 15 44 44"/><svg viewBox="0 0 44 44" width="44" height="44" y="15" xmlns="http://www.w3.org/2000/svg"><path fill="#282626" d="M13.683 18.407l-5.241 1.665L8 18.063l3.28-1.042-2.85-1.645 1.012-1.752 2.823 1.63-.728-3.317 1.96-.622 1.169 5.326 6.322 3.65v-7.214l-4.045-3.69L18.464 8l2.525 2.305V7h2.022v3.305L25.537 8l1.519 1.386-4.045 3.691v7.213l6.322-3.65 1.17-5.325 1.96.622-.729 3.317 2.823-1.63 1.012 1.752-2.85 1.645 3.28 1.042-.44 2.009-5.242-1.665L24.095 22l6.222 3.593 5.241-1.665.441 2.009-3.28 1.042 2.85 1.645-1.012 1.752-2.823-1.63.728 3.317-1.96.622-1.169-5.326-6.322-3.65v7.214l4.045 3.69L25.536 36l-2.525-2.305V37H20.99v-3.305L18.463 36l-1.519-1.386 4.045-3.691V23.71l-6.322 3.65-1.17 5.325-1.96-.622.729-3.317-2.823 1.63-1.012-1.752 2.85-1.645-3.28-1.042.44-2.009 5.242 1.665L19.905 22l-6.222-3.593z"/></svg><view id=".product-close" viewBox="62 129 15 15"/><svg width="15" height="15" viewBox="0 0 15 15" x="62" y="129" xmlns="http://www.w3.org/2000/svg"><path fill="#2D2D2D" fill-rule="evenodd" d="M7.5 6.086L12.803.782l1.415 1.415L8.914 7.5l5.304 5.303-1.415 1.415L7.5 8.914l-5.303 5.304-1.415-1.415L6.086 7.5.782 2.197 2.197.782 7.5 6.086z"/></svg><view id=".product-closelarge" viewBox="0 99 30 30"/><svg width="30" height="30" viewBox="0 0 15 15" y="99" xmlns="http://www.w3.org/2000/svg"><path fill="#2D2D2D" fill-rule="evenodd" d="M7.5 6.086L12.803.782l1.415 1.415L8.914 7.5l5.304 5.303-1.415 1.415L7.5 8.914l-5.303 5.304-1.415-1.415L6.086 7.5.782 2.197 2.197.782 7.5 6.086z"/></svg><view id=".product-closesmall" viewBox="44 46 13 13"/><svg width="13" height="13" viewBox="0 0 10 10" x="44" y="46" xmlns="http://www.w3.org/2000/svg"><path fill="#2D2D2D" fill-rule="evenodd" d="M4.672 3.257L7.975-.046l1.414 1.414-3.303 3.304 3.303 3.303-1.414 1.414-3.303-3.303-3.304 3.303-1.414-1.414 3.303-3.303-3.303-3.304L1.368-.046l3.304 3.303z"/></svg><view id=".product-email-icon" viewBox="40 59 40 40"/><svg height="40" width="40" viewBox="0 0 40 40" x="40" y="59" xmlns="http://www.w3.org/2000/svg"><g fill="none" fill-rule="evenodd"><rect fill="#2d2d2d" height="40" rx="40" width="40"/><path d="M20 23l-9-7v10h18V16zm9-9H11l9 6z" fill="#fff"/></g></svg><view id=".product-facebook-icon" viewBox="0 59 40 40"/><svg height="40" width="40" viewBox="0 0 40 40" y="59" xmlns="http://www.w3.org/2000/svg"><g fill="none" fill-rule="evenodd"><circle cx="20" cy="20" fill="#3c5a99" r="20"/><path d="M25 40V27h4l1-5h-5v-4c-.264-1.168.15-2.185 2-2h3v-5c-.47.14-2.084 0-4 0-3.882 0-6.566 2.402-7 7v4h-4v5h4v13z" fill="#fff"/></g></svg><view id=".product-heartempty" viewBox="70 40 18 16"/><svg width="18" height="16" viewBox="0 0 20 18" x="70" y="40" xmlns="http://www.w3.org/2000/svg"><path fill="#2D2D2D" fill-rule="evenodd" d="M10.461 15.213a22.594 22.594 0 0 0 3.125-2.217c2.665-2.269 4.195-4.763 4.192-7.368-.003-2.098-1.282-3.38-3.332-3.378-.748 0-1.995.683-2.868 1.58L10 5.45 8.418 3.834c-.882-.9-2.115-1.574-2.86-1.573-2.06.002-3.338 1.276-3.336 3.361.003 2.605 1.54 5.102 4.212 7.372a22.688 22.688 0 0 0 3.58 2.477c.144-.08.293-.166.447-.258zM9.996 2.25l.119-.12c1.07-1.051 2.782-2.129 4.33-2.13C17.69-.004 19.994 2.254 20 5.625 20.01 13.373 10.029 18 10.014 18 10 18 .01 13.371 0 5.625-.003 2.254 2.31.015 5.556.011 7.103.009 8.8 1.08 9.873 2.127l.123.123z"/></svg><view id=".product-heartfull" viewBox="130 80 18 16"/><svg width="18" height="16" viewBox="0 0 20 18" x="130" y="80" xmlns="http://www.w3.org/2000/svg"><defs><path id="aoa" d="M21.996 15.25c-1.062-1.084-2.833-2.241-4.44-2.24-3.246.004-5.559 2.244-5.556 5.615C12.01 26.371 22 31 22.014 31c.015 0 9.997-4.627 9.986-12.375-.004-3.371-2.31-5.629-5.556-5.625-1.605.001-3.39 1.162-4.448 2.25z"/></defs><use fill="#2D2D2D" fill-rule="evenodd" transform="translate(-12 -13)" xlink:href="#aoa"/></svg><view id=".product-icon-fit-analytics" viewBox="57 46 12 11.5"/><svg width="12" height="11.5" viewBox="0 0 24 23" x="57" y="46" xmlns="http://www.w3.org/2000/svg"><path fill="#FFF" fill-rule="evenodd" d="M21 21h-3v-2.5h-2V21h-3v-3h-2v3H8v-2.5H6V21H3v-3H1v5h22v-5h-2v3zM11 6.667V4h1a1 1 0 1 0-1-1H9a3 3 0 1 1 4 2.83v.837L24 14v2H0v-2l11-7.333zM12 9l-8 5h16l-8-5z"/></svg><view id=".product-information" viewBox="126 99 20 20"/><svg width="20" height="20" viewBox="0 0 20 20" x="126" y="99" xmlns="http://www.w3.org/2000/svg"><path fill="#2D2D2D" fill-rule="evenodd" d="M10 20C4.477 20 0 15.523 0 10S4.477 0 10 0s10 4.477 10 10-4.477 10-10 10zm0-18a8 8 0 1 0 0 16 8 8 0 0 0 0-16zM9 8.505h2v6H9v-6zM9 6c0-.548.452-1 1-1s1 .452 1 1-.452 1-1 1-1-.452-1-1z"/></svg><view id=".product-information-light" viewBox="47 129 15 15"/><svg width="15" height="15" viewBox="0 0 20 20" x="47" y="129" xmlns="http://www.w3.org/2000/svg"><path fill="#767676" fill-rule="evenodd" d="M10 20C4.477 20 0 15.523 0 10S4.477 0 10 0s10 4.477 10 10-4.477 10-10 10zm0-18a8 8 0 1 0 0 16 8 8 0 0 0 0-16zM9 8.505h2v6H9v-6zM9 6c0-.548.452-1 1-1s1 .452 1 1-.452 1-1 1-1-.452-1-1z"/></svg><view id=".product-pinterest-icon" viewBox="110 40 40 40"/><svg height="40" width="40" viewBox="0 0 40 40" x="110" y="40" xmlns="http://www.w3.org/2000/svg"><g fill="none" fill-rule="evenodd"><circle cx="20" cy="20" fill="#cf1b2c" r="20"/><path d="M21.014 10C15.02 10 12 14.108 12 17.535c0 2.074.82 3.92 2.582 4.607.29.114.548.006.632-.3.058-.21.196-.744.257-.967.085-.303.053-.41-.18-.674-.508-.572-.833-1.314-.833-2.366 0-3.048 2.384-5.776 6.21-5.776 3.387 0 5.247 1.978 5.247 4.621 0 3.479-1.609 6.416-3.998 6.416-1.32 0-2.306-1.044-1.99-2.325.379-1.528 1.113-3.177 1.113-4.281 0-.987-.557-1.81-1.703-1.81-1.35 0-2.43 1.335-2.43 3.123 0 1.138.4 1.908.4 1.908l-1.622 6.573c-.482 1.95-.073 4.342-.039 4.583.02.144.214.177.302.07.124-.156 1.731-2.053 2.277-3.949.155-.536.888-3.314.888-3.314.438.8 1.719 1.503 3.08 1.503 4.055 0 6.807-3.534 6.807-8.266C29 13.333 25.83 10 21.014 10z" fill="#fff"/></g></svg><view id=".product-play" viewBox="88 40 15 16"/><svg width="15" height="16" viewBox="0 0 15 16" x="88" y="40" xmlns="http://www.w3.org/2000/svg"><path fill="#2D2D2D" fill-rule="evenodd" d="M2 12.655l8.75-4.7L2 3.321v9.333zM0 0l15 7.941L0 16V0z"/></svg><view id=".product-play-filled" viewBox="0 129 15 16"/><svg width="15" height="16" viewBox="0 0 15 16" y="129" xmlns="http://www.w3.org/2000/svg"><path fill="#2D2D2D" fill-rule="evenodd" d="M0 0l15 7.941L0 16z"/></svg><view id=".product-returns" viewBox="110 80 20 17"/><svg width="20" height="17" viewBox="0 0 20 17" x="110" y="80" xmlns="http://www.w3.org/2000/svg"><path fill="#2D2D2D" fill-rule="evenodd" d="M3.821 5.174l1.826 1.825-1.394 1.394-2.818-2.818-.031.03L.01 4.213l.031-.03-.03-.032 1.393-1.393.03.03L4.254-.03l1.394 1.394-1.84 1.84h9.285C16.907 3.203 20 6.299 20 10.1c0 3.811-3.094 6.9-6.908 6.9H2v-1.971h11.071a4.927 4.927 0 1 0 0-9.855h-9.25z"/></svg><view id=".product-shamrock-icon" viewBox="98 59 12 15"/><svg width="12" height="15" viewBox="0 0 12 15" x="98" y="59" xmlns="http://www.w3.org/2000/svg"><path fill="#007517" fill-rule="evenodd" d="M11.038 5.163c-1.067-.621-2.43-.459-3.5-.155.78-.785 1.568-1.881 1.566-3.104C9.103.851 8.29 0 7.287 0c-.64.001-.966.505-1.21.801l-.062.062L5.95.801C5.72.465 5.417.003 4.74.004 3.738.005 2.926.86 2.927 1.913c.002 1.213.78 2.3 1.555 3.081-1.075-.306-2.45-.472-3.523.157-.901.528-1.224 1.666-.722 2.543.32.561.915.595 1.29.66l.085.024-.021.086c-.173.37-.416.868-.077 1.46.502.877 1.64 1.16 2.54.633.68-.398 1.147-1.061 1.467-1.771.079 1.594.275 3.916 1.886 5.508l.707-.74c-1.762-1.741-2.022-4.125-1.971-5.673.298 1.017.837 2.129 1.813 2.696.902.525 2.039.239 2.54-.64.319-.56.05-1.098-.081-1.46l-.023-.085.085-.024c.404-.034.952-.069 1.29-.663.5-.878.172-2.016-.73-2.542"/></svg><view id=".product-share-icon" viewBox="109 99 17 20"/><svg width="17" height="20" viewBox="0 0 17 20" x="109" y="99" xmlns="http://www.w3.org/2000/svg"><defs><path id="axa" d="M23.45 16.068v9.557h-2.1v-9.663l-2.717 2.717-1.481-1.482 3.714-3.714-.002-.001L22.346 12l.001.002.002-.002 1.481 1.482-.001.001 3.714 3.714-1.482 1.482-2.611-2.611zm7.35 15.855H14v-9.44h2.067v7.387s12.689.04 12.689 0v-7.388H30.8v9.441z"/></defs><use fill="#2D2D2D" fill-rule="evenodd" transform="translate(-14 -12)" xlink:href="#axa"/></svg><view id=".product-tick-white" viewBox="69 99 20 20"/><svg width="20" height="20" viewBox="0 0 20 20" x="69" y="99" xmlns="http://www.w3.org/2000/svg"><path fill="#FFF" fill-rule="evenodd" d="M8.377 11.25l4.75-4.75 1.457 1.457-4.75 4.75.036.036-1.572 1.571-2.742-2.743L7.126 10l1.25 1.25zM10 20C4.477 20 0 15.523 0 10S4.477 0 10 0s10 4.477 10 10-4.477 10-10 10zm0-18a8 8 0 1 0 0 16 8 8 0 0 0 0-16z"/></svg><view id=".product-tinyheart-icon-pink" viewBox="31 129 16 16"/><svg width="16" height="16" viewBox="15 17 13 11" x="31" y="129" xmlns="http://www.w3.org/2000/svg"><path fill="#F77FFF" fill-rule="evenodd" d="M24.058 18c-.803 0-1.53.337-2.06.881a2.874 2.874 0 0 0-2.063-.876c-1.623.002-2.936 1.371-2.935 3.057.005 3.873 5.007 5.938 5.007 5.938s4.998-2.077 4.993-5.952c-.002-1.685-1.319-3.05-2.942-3.048z"/></svg><view id=".product-tinyheart-icon-red" viewBox="15 129 16 16"/><svg width="16" height="16" viewBox="15 17 13 11" x="15" y="129" xmlns="http://www.w3.org/2000/svg"><path fill="#D0021B" fill-rule="evenodd" d="M24.058 18c-.803 0-1.53.337-2.06.881a2.874 2.874 0 0 0-2.063-.876c-1.623.002-2.936 1.371-2.935 3.057.005 3.873 5.007 5.938 5.007 5.938s4.998-2.077 4.993-5.952c-.002-1.685-1.319-3.05-2.942-3.048z"/></svg><view id=".product-vk-icon" viewBox="70 0 40 40"/><svg width="40" height="40" viewBox="0 0 40 40" x="70" xmlns="http://www.w3.org/2000/svg"><g fill="none" fill-rule="evenodd"><path fill="#507299" d="M20 40c11.046 0 20-8.954 20-20S31.046 0 20 0 0 8.954 0 20s8.954 20 20 20z"/><path fill="#FFF" d="M18.743 27.941h1.434s.433-.048.655-.292c.203-.224.197-.644.197-.644s-.028-1.969.865-2.258c.88-.286 2.012 1.902 3.21 2.743.907.636 1.596.497 1.596.497l3.205-.046s1.676-.105.881-1.453c-.065-.11-.463-.997-2.383-2.82-2.01-1.907-1.74-1.598.68-4.897 1.475-2.01 2.064-3.236 1.88-3.762-.176-.5-1.26-.368-1.26-.368l-3.609.023s-.267-.037-.466.084c-.194.119-.318.396-.318.396s-.572 1.555-1.333 2.877c-1.607 2.79-2.25 2.938-2.512 2.764-.611-.404-.458-1.622-.458-2.487 0-2.704.4-3.832-.782-4.123-.392-.097-.68-.162-1.684-.172-1.288-.013-2.378.004-2.994.313-.411.206-.728.664-.535.69.239.033.779.15 1.065.548.37.514.357 1.67.357 1.67s.213 3.182-.496 3.577c-.487.272-1.154-.282-2.587-2.813-.734-1.297-1.288-2.73-1.288-2.73s-.106-.268-.297-.411c-.231-.174-.555-.229-.555-.229l-3.429.023s-.515.015-.703.244c-.169.203-.014.624-.014.624s2.685 6.423 5.724 9.66c2.789 2.967 5.954 2.772 5.954 2.772z"/></g></svg><view id=".product-whatsapp-icon" viewBox="110 0 40 40"/><svg height="40" width="40" viewBox="0 0 40 40" x="110" xmlns="http://www.w3.org/2000/svg"><g fill="none" fill-rule="evenodd"><rect fill="#0f8f45" height="40" rx="40" width="40"/><path d="M24.754 21.888c-.054-.089-.2-.143-.418-.252-.22-.11-1.294-.635-1.495-.705-.2-.073-.346-.11-.492.107-.145.218-.564.707-.693.85-.127.145-.254.163-.473.054-.218-.107-.923-.337-1.759-1.076-.65-.576-1.088-1.284-1.216-1.502-.127-.218-.013-.335.097-.442.097-.097.217-.255.327-.38.11-.127.146-.218.219-.363.073-.144.036-.271-.019-.38-.054-.109-.491-1.174-.673-1.611-.183-.433-.365-.361-.492-.361-.128 0-.273-.018-.42-.018a.807.807 0 0 0-.583.272c-.2.216-.765.74-.765 1.81 0 1.067.783 2.1.893 2.242.109.145 1.513 2.407 3.735 3.275 2.224.87 2.224.58 2.624.543.4-.036 1.293-.525 1.476-1.031.183-.507.183-.942.127-1.032zm-4.504-9.479c-4.136 0-7.5 3.338-7.5 7.442 0 1.627.532 3.135 1.43 4.363l-.937 2.763 2.882-.916a7.498 7.498 0 0 0 4.125 1.231c4.136 0 7.5-3.339 7.5-7.441 0-4.104-3.364-7.442-7.5-7.442zm8.92 7.442c0 4.887-3.993 8.85-8.92 8.85a8.93 8.93 0 0 1-4.312-1.102L11 29.17l1.61-4.75a8.758 8.758 0 0 1-1.28-4.57c0-4.89 3.994-8.85 8.92-8.85 4.927 0 8.92 3.96 8.92 8.85z" fill="#fff"/></g></svg></svg>